<svg xmlns="http://www.w3.org/2000/svg" version="1.1" xmlns:xlink="http://www.w3.org/1999/xlink" xmlns:svgjs="http://svgjs.dev/svgjs" width="1500" height="1500" viewBox="0 0 1500 1500"><rect width="1500" height="1500" fill="#ffffff"></rect><g transform="matrix(0.6666666666666666,0,0,0.6666666666666666,250.1263586956522,515.2374220190559)"><svg viewBox="0 0 184 86" data-background-color="#ffffff" preserveAspectRatio="xMidYMid meet" height="701" width="1500" xmlns="http://www.w3.org/2000/svg" xmlns:xlink="http://www.w3.org/1999/xlink"><g id="tight-bounds" transform="matrix(1,0,0,1,-0.023249999999990223,0.20167269549472167)"><svg viewBox="0 0 184.04649999999998 85.59665460901059" height="85.59665460901059" width="184.04649999999998"><g><svg viewBox="0 0 184.04649999999998 85.59665460901059" height="85.59665460901059" width="184.04649999999998"><g><svg viewBox="0 0 184.04649999999998 85.59665460901059" height="85.59665460901059" width="184.04649999999998"><g id="textblocktransform"><svg viewBox="0 0 184.04649999999998 85.59665460901059" height="85.59665460901059" width="184.04649999999998" id="textblock"><g><svg viewBox="0 0 184.04649999999998 58.248" height="58.248" width="184.04649999999998"><g><svg><g></g><g></g></svg></g><g><svg><g><svg></svg></g><g></g></svg></g><g id="text-0"><svg viewBox="0 0 184.04649999999998 58.248" height="58.248" width="184.04649999999998"><g transform="matrix(1,0,0,1,0,0)"><svg width="112.0465" viewBox="0.4 -35.25 69.25 36" height="58.248" data-palette-color="#cb8c2f"><path d="M0.4-34.55L21.95-34.55 21.25-29.55 14.15-29.55 14.15 0 7.8 0 7.8-29.55 0.4-29.55 0.4-34.55ZM47.35 0L40.5 0 34.4-13.95 33.8-13.95 31.35-13.95 31.35 0 25 0 25-34.55 33.15-34.55Q45.65-34.55 45.65-24.4L45.65-24.4Q45.65-21.25 44.25-18.82 42.85-16.4 40.05-15.15L40.05-15.15 47.35 0ZM33.45-18.55Q36.4-18.55 37.72-19.95 39.05-21.35 39.05-24.4L39.05-24.4Q39.05-27.25 37.67-28.58 36.3-29.9 33.15-29.9L33.15-29.9 31.35-29.9 31.35-18.55 33.45-18.55ZM59.3-35.25Q62.3-35.25 64.59-34.2 66.9-33.15 68.84-31.05L68.84-31.05 65.9-27.65Q64.34-29.05 62.87-29.75 61.4-30.45 59.75-30.45L59.75-30.45Q57.84-30.45 56.75-29.28 55.65-28.1 55.65-26.2L55.65-26.2Q55.65-24.3 56.8-23.1 57.95-21.9 61.3-20.6L61.3-20.6Q65.59-18.85 67.62-16.5 69.65-14.15 69.65-9.85L69.65-9.85Q69.65-6.9 68.3-4.48 66.95-2.05 64.42-0.65 61.9 0.75 58.55 0.75L58.55 0.75Q55.09 0.75 52.55-0.48 50-1.7 47.9-3.95L47.9-3.95 51.09-7.45Q52.9-5.85 54.55-5 56.2-4.15 58.15-4.15L58.15-4.15Q60.45-4.15 61.72-5.58 63-7 63-9.45L63-9.45Q63-11.6 61.87-12.98 60.75-14.35 57.7-15.5L57.7-15.5Q53.09-17.35 51.07-19.75 49.05-22.15 49.05-25.75L49.05-25.75Q49.05-28.5 50.37-30.65 51.7-32.8 54.05-34.02 56.4-35.25 59.3-35.25L59.3-35.25Z" opacity="1" transform="matrix(1,0,0,1,0,0)" fill="#cb8c2f" class="wordmark-text-0" data-fill-palette-color="primary"></path></svg></g><g><svg xmlns="http://www.w3.org/2000/svg" xmlns:xlink="http://www.w3.org/1999/xlink" version="1.1" x="125.79849999999999" y="0" viewBox="25.358000000000004 25.358 49.285 49.285" enable-background="new 0 0 100 100" xml:space="preserve" height="58.248" width="58.248" class="icon-cg-0" data-fill-palette-color="accent" id="cg-0"><path d="M74.626 49.917c-0.021-6.282-2.419-12.558-7.202-17.341C62.771 27.922 56.582 25.358 50 25.358s-12.771 2.563-17.425 7.218c-4.785 4.785-7.184 11.065-7.202 17.351-0.002 0.025-0.015 0.047-0.015 0.073 0 0.026 0.012 0.047 0.015 0.073 0.018 6.286 2.417 12.565 7.202 17.353C37.23 72.078 43.419 74.643 50 74.643s12.77-2.563 17.424-7.218c4.783-4.782 7.182-11.061 7.201-17.343 0.003-0.028 0.018-0.053 0.018-0.082C74.643 49.97 74.629 49.945 74.626 49.917zM55.595 44.405c3.084 3.086 3.084 8.104 0 11.188-1.493 1.493-3.48 2.316-5.595 2.316s-4.101-0.823-5.595-2.316c-1.493-1.492-2.316-3.48-2.316-5.594 0-2.114 0.823-4.101 2.317-5.595 1.494-1.494 3.48-2.317 5.594-2.317C52.114 42.088 54.1 42.911 55.595 44.405zM41.985 29.832c1.087-0.431 2.218-0.777 3.362-1.027 0.408-0.091 0.805 0.169 0.894 0.572 0.088 0.405-0.168 0.804-0.573 0.893-1.065 0.232-2.118 0.554-3.129 0.956-0.091 0.036-0.185 0.053-0.277 0.053-0.298 0-0.58-0.179-0.697-0.474C41.412 30.421 41.6 29.985 41.985 29.832zM28.958 44.7c0.497-1.979 1.269-3.875 2.296-5.633 0.935-1.602 2.08-3.085 3.404-4.409 1.3-1.3 2.755-2.429 4.324-3.355 0.357-0.208 0.817-0.092 1.027 0.264 0.21 0.357 0.091 0.817-0.265 1.027-1.461 0.862-2.816 1.914-4.026 3.124-1.231 1.233-2.298 2.614-3.169 4.104-0.955 1.637-1.674 3.4-2.136 5.243-0.085 0.34-0.391 0.567-0.727 0.567-0.06 0-0.121-0.007-0.183-0.021C29.101 45.509 28.857 45.102 28.958 44.7zM66.364 66.364c-4.371 4.37-10.184 6.776-16.364 6.776s-11.993-2.406-16.365-6.776c-4.321-4.321-6.549-9.94-6.73-15.614h13.722c0.175 2.23 1.121 4.307 2.72 5.905 1.778 1.776 4.142 2.756 6.655 2.756s4.878-0.979 6.655-2.756c1.645-1.645 2.545-3.751 2.716-5.905h13.723C72.912 56.424 70.686 62.043 66.364 66.364zM45.853 54.146c1.108 1.108 2.582 1.718 4.148 1.718 1.565 0 3.04-0.609 4.147-1.718 2.287-2.287 2.287-6.01 0-8.295-1.107-1.108-2.582-1.719-4.147-1.719-1.567 0-3.04 0.61-4.148 1.719C43.566 48.137 43.566 51.859 45.853 54.146z" fill="#ac5633" data-fill-palette-color="accent"></path></svg></g></svg></g></svg></g><g transform="matrix(1,0,0,1,0,71.998954848)"><svg viewBox="0 0 184.04649999999998 13.597699761010585" height="13.597699761010585" width="184.04649999999998"><g transform="matrix(1,0,0,1,0,0)"><svg width="184.04649999999998" viewBox="3.7 -40.95 732.17 54.1" height="13.597699761010585" data-palette-color="#cb8c2f"><path d="M6.55-11.55L8.15-3.45Q11.05-1.45 16.3-1.45L16.3-1.45Q19.85-1.45 21.63-3.5 23.4-5.55 23.4-8.4L23.4-8.4Q23.4-9.9 23.15-10.93 22.9-11.95 22.08-13.25 21.25-14.55 19.45-15.85 17.65-17.15 14.75-18.6L14.75-18.6Q11.35-20.3 9.25-21.8 7.15-23.3 6.1-24.9 5.05-26.5 4.7-27.95 4.35-29.4 4.35-31.55L4.35-31.55Q4.35-35.95 7.88-38.38 11.4-40.8 16.2-40.8L16.2-40.8Q22.15-40.8 27.7-37.8L27.7-37.8 27.7-28.2Q26-27.9 24.85-28.2L24.85-28.2 23.25-36.85Q20.05-38.6 16.1-38.6L16.1-38.6Q13.45-38.6 11.63-37.02 9.8-35.45 9.8-32.6L9.8-32.6Q9.8-31 10-30.1 10.2-29.2 11-27.98 11.8-26.75 13.65-25.53 15.5-24.3 18.6-22.8L18.6-22.8Q29.3-17.6 29.3-10.4L29.3-10.4Q29.3-5.3 25.4-2.15 21.5 1 15.2 1L15.2 1Q8.95 1 3.7-1.95L3.7-1.95 3.7-11.55Q5.4-11.85 6.55-11.55L6.55-11.55ZM42.15-32.7L42.15-32.7 42.15-25.55 49.2-25.55Q49.3-24.95 49.3-24.65L49.3-24.65Q49.3-24.2 49.2-23.6L49.2-23.6 42.15-22.55 42.15-8.8Q42.15-5.1 42.82-3.58 43.5-2.05 44.95-2.05L44.95-2.05Q46.25-2.05 49-3.1L49-3.1Q49.5-2.65 49.7-1.4L49.7-1.4Q48.2-0.5 47.42-0.08 46.65 0.35 45.47 0.68 44.3 1 43 1L43 1Q40.5 1 38.92-0.93 37.35-2.85 37.35-6.8L37.35-6.8 37.35-23.15 33.85-23.6Q33.75-24.1 33.75-24.45L33.75-24.45Q33.75-24.85 33.85-25.55L33.85-25.55Q35.25-25.8 36.27-26.43 37.3-27.05 38-28.18 38.7-29.3 39.07-30.18 39.45-31.05 40-32.7L40-32.7Q40.45-32.85 41.1-32.85L41.1-32.85Q41.7-32.85 42.15-32.7ZM60.85-18.6L60.85-18.6 60.85-2.55 64.9-1.8Q64.95-1.55 64.97-1.35 65-1.15 65-0.9L65-0.9Q65-0.65 64.97-0.38 64.95-0.1 64.9 0.2L64.9 0.2Q61.75 0.05 58.45 0.05L58.45 0.05Q57.3 0.05 55.67 0.08 54.05 0.1 51.95 0.15L51.95 0.15Q51.8-0.3 51.8-0.8L51.8-0.8Q51.8-1.25 51.95-1.8L51.95-1.8 55.9-2.35Q56-3.75 56.05-5.33 56.1-6.9 56.1-8.7L56.1-8.7 56.1-19.35Q56.1-22.65 55.95-24.25L55.95-24.25 52-24.75Q51.9-25 51.9-25.6L51.9-25.6Q51.9-25.85 51.9-26.1 51.9-26.35 52-26.65L52-26.65Q55.4-26.85 60.6-27.7L60.6-27.7Q61.05-27.2 61.1-26.7L61.1-26.7Q60.85-25.3 60.85-18.6ZM53.55-36.45L53.55-36.45Q53.45-36.7 53.45-36.98 53.45-37.25 53.45-37.5L53.45-37.5Q53.45-38.85 54.57-39.68 55.7-40.5 57.35-40.5L57.35-40.5Q58.9-40.5 59.87-39.58 60.85-38.65 60.85-37.05L60.85-37.05Q60.85-35.75 59.72-34.95 58.6-34.15 56.85-34.15L56.85-34.15Q55.65-34.15 54.72-34.75 53.8-35.35 53.55-36.45ZM75.79-31.7L75.79-31.7 75.79-2.55 79.84-1.8Q80.04-1 79.84 0.2L79.84 0.2Q76.69 0.05 73.39 0.05L73.39 0.05Q71.09 0.05 66.89 0.15L66.89 0.15Q66.59-0.8 66.89-1.8L66.89-1.8 70.84-2.35Q71.04-5.1 71.04-8.7L71.04-8.7 71.04-37.35 66.94-37.85Q66.74-38.6 66.94-39.75L66.94-39.75Q70.39-40 75.54-40.8L75.54-40.8Q75.99-40.3 76.04-39.8L76.04-39.8Q75.79-38.5 75.79-31.7ZM90.74-31.7L90.74-31.7 90.74-2.55 94.79-1.8Q94.99-1 94.79 0.2L94.79 0.2Q91.64 0.05 88.34 0.05L88.34 0.05Q86.04 0.05 81.84 0.15L81.84 0.15Q81.54-0.8 81.84-1.8L81.84-1.8 85.79-2.35Q85.99-5.1 85.99-8.7L85.99-8.7 85.99-37.35 81.89-37.85Q81.69-38.6 81.89-39.75L81.89-39.75Q85.34-40 90.49-40.8L90.49-40.8Q90.94-40.3 90.99-39.8L90.99-39.8Q90.74-38.5 90.74-31.7ZM121.99-40.8L121.99-40.8Q129.44-40.8 129.44-34.9L129.44-34.9Q128.39-33.8 124.44-33.85L124.44-33.85Q123.94-39.1 121.89-39.1L121.89-39.1Q119.99-39.1 119.21-36.08 118.44-33.05 118.44-25.05L118.44-25.05 125.49-25.05Q125.79-24.1 125.49-23.1L125.49-23.1 118.44-22.05 118.44-2.8 124.49-1.8Q124.79-0.8 124.49 0.2L124.49 0.2Q121.34 0.05 116.74 0.05L116.74 0.05Q114.04 0.05 109.84 0.15L109.84 0.15Q109.44-0.75 109.84-1.8L109.84-1.8 113.49-2.6Q113.69-5.25 113.69-8.7L113.69-8.7 113.69-22.55 110.14-23.1Q109.84-24.1 110.14-25.05L110.14-25.05 113.69-25.05 113.69-28.45Q113.69-31.45 114.54-34.18 115.39-36.9 117.36-38.85 119.34-40.8 121.99-40.8ZM149.63-14.1L149.63-14.1 133.93-14.1Q133.48-1.35 141.58-1.35L141.58-1.35Q145.03-1.35 148.63-4.4L148.63-4.4Q149.38-3.95 149.78-2.85L149.78-2.85Q146.33 1 141.03 1L141.03 1Q128.83 1 128.83-13.35L128.83-13.35Q128.83-20.15 132.43-23.93 136.03-27.7 140.83-27.7L140.83-27.7Q146.08-27.7 148.38-24.05 150.68-20.4 150.68-14.55L150.68-14.55Q150.18-14.15 149.63-14.1ZM140.73-25.7L140.73-25.7Q138.13-25.7 136.31-23 134.48-20.3 134.08-16.1L134.08-16.1 140.28-16.1Q143.98-16.1 145.58-16.55L145.58-16.55Q145.58-20.65 144.33-23.18 143.08-25.7 140.73-25.7ZM175.88-14.1L175.88-14.1 160.18-14.1Q159.73-1.35 167.83-1.35L167.83-1.35Q171.28-1.35 174.88-4.4L174.88-4.4Q175.63-3.95 176.03-2.85L176.03-2.85Q172.58 1 167.28 1L167.28 1Q155.08 1 155.08-13.35L155.08-13.35Q155.08-20.15 158.68-23.93 162.28-27.7 167.08-27.7L167.08-27.7Q172.33-27.7 174.63-24.05 176.93-20.4 176.93-14.55L176.93-14.55Q176.43-14.15 175.88-14.1ZM166.98-25.7L166.98-25.7Q164.38-25.7 162.56-23 160.73-20.3 160.33-16.1L160.33-16.1 166.53-16.1Q170.23-16.1 171.83-16.55L171.83-16.55Q171.83-20.65 170.58-23.18 169.33-25.7 166.98-25.7ZM188.93-31.7L188.93-31.7 188.93-2.55 192.98-1.8Q193.18-1 192.98 0.2L192.98 0.2Q189.83 0.05 186.53 0.05L186.53 0.05Q184.23 0.05 180.03 0.15L180.03 0.15Q179.73-0.8 180.03-1.8L180.03-1.8 183.98-2.35Q184.18-5.1 184.18-8.7L184.18-8.7 184.18-37.35 180.08-37.85Q179.88-38.6 180.08-39.75L180.08-39.75Q183.53-40 188.68-40.8L188.68-40.8Q189.13-40.3 189.18-39.8L189.18-39.8Q188.93-38.5 188.93-31.7ZM204.43-18.6L204.43-18.6 204.43-2.55 208.47-1.8Q208.53-1.55 208.55-1.35 208.58-1.15 208.58-0.9L208.58-0.9Q208.58-0.65 208.55-0.38 208.53-0.1 208.47 0.2L208.47 0.2Q205.33 0.05 202.03 0.05L202.03 0.05Q200.88 0.05 199.25 0.08 197.63 0.1 195.53 0.15L195.53 0.15Q195.38-0.3 195.38-0.8L195.38-0.8Q195.38-1.25 195.53-1.8L195.53-1.8 199.47-2.35Q199.58-3.75 199.63-5.33 199.68-6.9 199.68-8.7L199.68-8.7 199.68-19.35Q199.68-22.65 199.53-24.25L199.53-24.25 195.58-24.75Q195.47-25 195.47-25.6L195.47-25.6Q195.47-25.85 195.47-26.1 195.47-26.35 195.58-26.65L195.58-26.65Q198.97-26.85 204.18-27.7L204.18-27.7Q204.63-27.2 204.68-26.7L204.68-26.7Q204.43-25.3 204.43-18.6ZM197.13-36.45L197.13-36.45Q197.03-36.7 197.03-36.98 197.03-37.25 197.03-37.5L197.03-37.5Q197.03-38.85 198.15-39.68 199.28-40.5 200.93-40.5L200.93-40.5Q202.47-40.5 203.45-39.58 204.43-38.65 204.43-37.05L204.43-37.05Q204.43-35.75 203.3-34.95 202.18-34.15 200.43-34.15L200.43-34.15Q199.22-34.15 198.3-34.75 197.38-35.35 197.13-36.45ZM231.82-8.7L231.82-17.85Q231.82-21.7 230.8-23.25 229.77-24.8 227.37-24.8L227.37-24.8Q223.67-24.8 219.92-19.25L219.92-19.25 219.92-2.55 223.97-1.8Q224.17-1 223.97 0.2L223.97 0.2Q220.82 0.05 217.52 0.05L217.52 0.05Q215.22 0.05 211.02 0.15L211.02 0.15Q210.72-0.8 211.02-1.8L211.02-1.8 214.97-2.35Q215.17-5.1 215.17-8.7L215.17-8.7 215.17-22.4Q215.17-23.4 215.02-24.25L215.02-24.25 211.07-24.75Q210.87-25.5 211.07-26.65L211.07-26.65Q214.52-26.9 219.67-27.7L219.67-27.7Q220.12-27.2 220.17-26.7L220.17-26.7Q219.92-25.4 219.92-22.25L219.92-22.25Q223.87-27.7 228.82-27.7L228.82-27.7Q236.57-27.7 236.57-20.35L236.57-20.35 236.57-2.55 240.62-1.8Q240.82-1 240.62 0.2L240.62 0.2Q237.47 0.05 234.17 0.05L234.17 0.05Q231.87 0.05 227.67 0.15L227.67 0.15Q227.37-0.8 227.67-1.8L227.67-1.8 231.62-2.35Q231.82-5.1 231.82-8.7L231.82-8.7ZM247.37 0.55L247.37 0.55Q247.82 0.75 248.12 1.4L248.12 1.4Q246.47 2.75 246.47 5.45L246.47 5.45Q246.47 7.85 248.67 9.3 250.87 10.75 254.37 10.75L254.37 10.75Q257.97 10.75 260.37 9.43 262.77 8.1 262.77 5.7L262.77 5.7Q262.77 3.1 261.82 1.88 260.87 0.65 258.02 0.4L258.02 0.4 248.67-0.45Q247.12-0.65 246.09-2.08 245.07-3.5 245.07-4.85L245.07-4.85 248.42-10.4Q246.12-11.7 244.94-13.85 243.77-16 243.77-18.25L243.77-18.25Q243.77-22.5 246.92-25.1 250.07-27.7 254.17-27.7L254.17-27.7Q258.12-27.7 261.12-25.6L261.12-25.6Q261.37-32.45 266.22-32.7L266.22-32.7Q267.52-32.4 267.52-30.55L267.52-30.55Q267.52-29.55 267.32-28.35L267.32-28.35Q265.37-28.2 264.12-27.08 262.87-25.95 262.32-24.5L262.32-24.5Q264.82-22 264.82-18.25L264.82-18.25Q264.82-14.3 261.62-11.68 258.42-9.05 254.17-9.05L254.17-9.05Q251.92-9.05 250.12-9.65L250.12-9.65 248.42-5.2 260.87-3.95Q263.77-3.6 265.3-1.83 266.82-0.05 266.82 2.8L266.82 2.8Q266.82 7.8 263.22 10.48 259.62 13.15 253.47 13.15L253.47 13.15Q248.37 13.15 245.52 11.3 242.67 9.45 242.67 6.35L242.67 6.35Q242.67 4.25 244.02 2.63 245.37 1 247.37 0.55ZM248.27-18.25L248.27-18.25Q248.27-15.35 249.9-13.3 251.52-11.25 254.22-11.25L254.22-11.25Q256.87-11.25 258.57-13.28 260.27-15.3 260.27-18.25L260.27-18.25Q260.27-21.45 258.6-23.58 256.92-25.7 254.22-25.7L254.22-25.7Q251.67-25.7 249.97-23.55 248.27-21.4 248.27-18.25ZM289.72-31.7L289.72-31.7 289.72-2.55 293.76-1.8Q293.97-1 293.76 0.2L293.76 0.2Q290.62 0.05 287.31 0.05L287.31 0.05Q285.01 0.05 280.81 0.15L280.81 0.15Q280.51-0.8 280.81-1.8L280.81-1.8 284.76-2.35Q284.97-5.1 284.97-8.7L284.97-8.7 284.97-37.35 280.87-37.85Q280.67-38.6 280.87-39.75L280.87-39.75Q284.31-40 289.47-40.8L289.47-40.8Q289.92-40.3 289.97-39.8L289.97-39.8Q289.72-38.5 289.72-31.7ZM296.96-13.3L296.96-13.3Q296.96-16.3 297.84-18.93 298.71-21.55 300.36-23.5 302.01-25.45 304.34-26.58 306.66-27.7 309.56-27.7L309.56-27.7Q312.41-27.7 314.76-26.58 317.11-25.45 318.79-23.5 320.46-21.55 321.36-18.93 322.26-16.3 322.26-13.3L322.26-13.3Q322.26-10.2 321.34-7.6 320.41-5 318.74-3.08 317.06-1.15 314.71-0.08 312.36 1 309.56 1L309.56 1Q306.61 1 304.29-0.05 301.96-1.1 300.34-3 298.71-4.9 297.84-7.53 296.96-10.15 296.96-13.3ZM304.26-22.5L304.26-22.5Q302.11-19.45 302.11-13.3L302.11-13.3Q302.11-10.25 302.69-7.95 303.26-5.65 304.26-4.13 305.26-2.6 306.61-1.85 307.96-1.1 309.56-1.1L309.56-1.1Q311.11-1.1 312.51-1.85 313.91-2.6 314.91-4.13 315.91-5.65 316.51-7.95 317.11-10.25 317.11-13.3L317.11-13.3Q317.11-16.35 316.51-18.68 315.91-21 314.89-22.53 313.86-24.05 312.49-24.83 311.11-25.6 309.56-25.6L309.56-25.6Q306.46-25.6 304.26-22.5ZM335.51-1.2L335.51-1.2Q338.21-1.2 339.51-2.45 340.81-3.7 340.81-5.35L340.81-5.35Q340.81-6.3 340.51-7.1 340.21-7.9 339.54-8.65 338.86-9.4 337.76-10.13 336.66-10.85 335.01-11.7L335.01-11.7Q332.96-12.75 331.49-13.7 330.01-14.65 329.06-15.7 328.11-16.75 327.64-17.95 327.16-19.15 327.16-20.65L327.16-20.65Q327.16-22.45 327.81-23.78 328.46-25.1 329.64-25.98 330.81-26.85 332.41-27.28 334.01-27.7 335.96-27.7L335.96-27.7Q339.86-27.7 343.56-25.8L343.56-25.8 343.56-19.4 341.21-19.4 340.11-24.8Q337.91-25.85 335.46-25.85L335.46-25.85Q331.36-25.85 331.36-22.5L331.36-22.5Q331.36-20.7 332.71-19.2 334.06-17.7 337.06-16.2L337.06-16.2Q339.11-15.15 340.66-14.2 342.21-13.25 343.24-12.2 344.26-11.15 344.79-9.93 345.31-8.7 345.31-7.15L345.31-7.15Q345.31-5.4 344.56-3.9 343.81-2.4 342.46-1.33 341.11-0.25 339.21 0.38 337.31 1 335.01 1L335.01 1Q330.56 1 326.66-0.9L326.66-0.9 326.66-7.3 329.01-7.3 330.11-2.35Q332.66-1.2 335.51-1.2ZM356.91-32.7L356.91-32.7 356.91-25.55 363.96-25.55Q364.06-24.95 364.06-24.65L364.06-24.65Q364.06-24.2 363.96-23.6L363.96-23.6 356.91-22.55 356.91-8.8Q356.91-5.1 357.58-3.58 358.26-2.05 359.71-2.05L359.71-2.05Q361.01-2.05 363.76-3.1L363.76-3.1Q364.26-2.65 364.46-1.4L364.46-1.4Q362.96-0.5 362.18-0.08 361.41 0.35 360.23 0.68 359.06 1 357.76 1L357.76 1Q355.26 1 353.68-0.93 352.11-2.85 352.11-6.8L352.11-6.8 352.11-23.15 348.61-23.6Q348.51-24.1 348.51-24.45L348.51-24.45Q348.51-24.85 348.61-25.55L348.61-25.55Q350.01-25.8 351.03-26.43 352.06-27.05 352.76-28.18 353.46-29.3 353.83-30.18 354.21-31.05 354.76-32.7L354.76-32.7Q355.21-32.85 355.86-32.85L355.86-32.85Q356.46-32.85 356.91-32.7ZM374.86-5.55L374.86-5.55Q376.21-5.55 377.13-4.67 378.06-3.8 378.06-2.5L378.06-2.5Q378.06-1.2 377.13-0.28 376.21 0.65 374.91 0.65L374.91 0.65Q373.61 0.65 372.68-0.28 371.75-1.2 371.75-2.5L371.75-2.5Q371.75-3.8 372.66-4.67 373.56-5.55 374.86-5.55ZM372.96-8.15L372.96-8.15 371.96-20.4 372.5-20.4Q375.21-20.4 377-20.93 378.81-21.45 379.93-22.58 381.06-23.7 381.53-25.45 382-27.2 382-29.65L382-29.65Q382-33.75 380.61-36.3 379.21-38.85 376.5-38.85L376.5-38.85Q372.75-38.85 371.5-31.9L371.5-31.9Q369.41-31.9 368.16-32.13 366.91-32.35 366.36-32.95L366.36-32.95Q366.36-34.95 367.11-36.45 367.86-37.95 369.18-38.95 370.5-39.95 372.25-40.45 374-40.95 375.96-40.95L375.96-40.95Q381.86-40.95 384.88-37.85 387.91-34.75 387.91-29.35L387.91-29.35Q387.91-18.95 375.16-18L375.16-18 375.61-8.15Q375.25-8 374.93-7.95 374.61-7.9 374.31-7.9L374.31-7.9Q373.5-7.9 372.96-8.15ZM404.95-39.95L404.95-39.95Q407.5-39.95 412.3-40.15 417.1-40.35 418.65-40.35L418.65-40.35 420-40.35Q426.55-40.35 429.75-37.68 432.95-35 432.95-30.65L432.95-30.65Q432.95-24.45 424.85-22.05L424.85-22.05 424.85-21.9Q429.55-21.2 432.28-18.23 435-15.25 435-11.1L435-11.1Q435-5.55 431.23-2.45 427.45 0.65 420.15 0.65L420.15 0.65Q418.15 0.65 413.68 0.33 409.2 0 406.55 0L406.55 0Q406.25 0 405.6 0.03 404.95 0.05 404.65 0.05L404.65 0.05Q404.35-0.85 404.65-1.75L404.65-1.75 408.8-2.3Q409-4.2 409-8.15L409-8.15 409-37.6 404.95-38.1Q404.75-38.85 404.95-39.95ZM418.35-20.3L418.35-20.3 414.35-20.3 414.35-2.2Q416.9-1.75 418.4-1.65L418.4-1.65Q424.45-1.65 426.75-3.93 429.05-6.2 429.05-11.05L429.05-11.05Q429.05-14.95 426.23-17.63 423.4-20.3 418.35-20.3ZM418.7-38.25L418.7-38.25Q416.2-38.25 414.55-37.9L414.55-37.9Q414.35-36 414.35-31.65L414.35-31.65 414.35-22.8 418.25-22.8Q422.9-22.8 425.03-24.7 427.15-26.6 427.15-30.35L427.15-30.35Q427.15-34.15 424.83-36.2 422.5-38.25 418.7-38.25ZM460.5-14.1L460.5-14.1 444.8-14.1Q444.35-1.35 452.45-1.35L452.45-1.35Q455.9-1.35 459.5-4.4L459.5-4.4Q460.25-3.95 460.65-2.85L460.65-2.85Q457.2 1 451.9 1L451.9 1Q439.7 1 439.7-13.35L439.7-13.35Q439.7-20.15 443.3-23.93 446.9-27.7 451.7-27.7L451.7-27.7Q456.95-27.7 459.25-24.05 461.55-20.4 461.55-14.55L461.55-14.55Q461.05-14.15 460.5-14.1ZM451.6-25.7L451.6-25.7Q449-25.7 447.17-23 445.35-20.3 444.95-16.1L444.95-16.1 451.15-16.1Q454.85-16.1 456.45-16.55L456.45-16.55Q456.45-20.65 455.2-23.18 453.95-25.7 451.6-25.7ZM485.84-31.7L485.84-31.7 485.84-2.55 489.89-1.8Q490.09-1 489.89 0.2L489.89 0.2Q486.74 0.05 483.44 0.05L483.44 0.05Q481.14 0.05 476.94 0.15L476.94 0.15Q476.64-0.8 476.94-1.8L476.94-1.8 480.89-2.35Q481.09-5.1 481.09-8.7L481.09-8.7 481.09-37.35 476.99-37.85Q476.79-38.6 476.99-39.75L476.99-39.75Q480.44-40 485.59-40.8L485.59-40.8Q486.04-40.3 486.09-39.8L486.09-39.8Q485.84-38.5 485.84-31.7ZM493.09-13.3L493.09-13.3Q493.09-16.3 493.97-18.93 494.84-21.55 496.49-23.5 498.14-25.45 500.47-26.58 502.79-27.7 505.69-27.7L505.69-27.7Q508.54-27.7 510.89-26.58 513.24-25.45 514.92-23.5 516.59-21.55 517.49-18.93 518.39-16.3 518.39-13.3L518.39-13.3Q518.39-10.2 517.47-7.6 516.54-5 514.87-3.08 513.19-1.15 510.84-0.08 508.49 1 505.69 1L505.69 1Q502.74 1 500.42-0.05 498.09-1.1 496.47-3 494.84-4.9 493.97-7.53 493.09-10.15 493.09-13.3ZM500.39-22.5L500.39-22.5Q498.24-19.45 498.24-13.3L498.24-13.3Q498.24-10.25 498.82-7.95 499.39-5.65 500.39-4.13 501.39-2.6 502.74-1.85 504.09-1.1 505.69-1.1L505.69-1.1Q507.24-1.1 508.64-1.85 510.04-2.6 511.04-4.13 512.04-5.65 512.64-7.95 513.24-10.25 513.24-13.3L513.24-13.3Q513.24-16.35 512.64-18.68 512.04-21 511.02-22.53 509.99-24.05 508.62-24.83 507.24-25.6 505.69-25.6L505.69-25.6Q502.59-25.6 500.39-22.5ZM531.64-1.2L531.64-1.2Q534.34-1.2 535.64-2.45 536.94-3.7 536.94-5.35L536.94-5.35Q536.94-6.3 536.64-7.1 536.34-7.9 535.66-8.65 534.99-9.4 533.89-10.13 532.79-10.85 531.14-11.7L531.14-11.7Q529.09-12.75 527.61-13.7 526.14-14.65 525.19-15.7 524.24-16.75 523.76-17.95 523.29-19.15 523.29-20.65L523.29-20.65Q523.29-22.45 523.94-23.78 524.59-25.1 525.76-25.98 526.94-26.85 528.54-27.28 530.14-27.7 532.09-27.7L532.09-27.7Q535.99-27.7 539.69-25.8L539.69-25.8 539.69-19.4 537.34-19.4 536.24-24.8Q534.04-25.85 531.59-25.85L531.59-25.85Q527.49-25.85 527.49-22.5L527.49-22.5Q527.49-20.7 528.84-19.2 530.19-17.7 533.19-16.2L533.19-16.2Q535.24-15.15 536.79-14.2 538.34-13.25 539.36-12.2 540.39-11.15 540.91-9.93 541.44-8.7 541.44-7.15L541.44-7.15Q541.44-5.4 540.69-3.9 539.94-2.4 538.59-1.33 537.24-0.25 535.34 0.38 533.44 1 531.14 1L531.14 1Q526.69 1 522.79-0.9L522.79-0.9 522.79-7.3 525.14-7.3 526.24-2.35Q528.79-1.2 531.64-1.2ZM553.03-32.7L553.03-32.7 553.03-25.55 560.08-25.55Q560.18-24.95 560.18-24.65L560.18-24.65Q560.18-24.2 560.08-23.6L560.08-23.6 553.03-22.55 553.03-8.8Q553.03-5.1 553.71-3.58 554.38-2.05 555.83-2.05L555.83-2.05Q557.13-2.05 559.88-3.1L559.88-3.1Q560.38-2.65 560.58-1.4L560.58-1.4Q559.08-0.5 558.31-0.08 557.53 0.35 556.36 0.68 555.18 1 553.88 1L553.88 1Q551.38 1 549.81-0.93 548.24-2.85 548.24-6.8L548.24-6.8 548.24-23.15 544.74-23.6Q544.63-24.1 544.63-24.45L544.63-24.45Q544.63-24.85 544.74-25.55L544.74-25.55Q546.13-25.8 547.16-26.43 548.18-27.05 548.88-28.18 549.58-29.3 549.96-30.18 550.33-31.05 550.88-32.7L550.88-32.7Q551.33-32.85 551.99-32.85L551.99-32.85Q552.58-32.85 553.03-32.7ZM584.03-18.6L584.03-18.6 584.03-2.55 588.08-1.8Q588.13-1.55 588.15-1.35 588.18-1.15 588.18-0.9L588.18-0.9Q588.18-0.65 588.15-0.38 588.13-0.1 588.08 0.2L588.08 0.2Q584.93 0.05 581.63 0.05L581.63 0.05Q580.48 0.05 578.85 0.08 577.23 0.1 575.13 0.15L575.13 0.15Q574.98-0.3 574.98-0.8L574.98-0.8Q574.98-1.25 575.13-1.8L575.13-1.8 579.08-2.35Q579.18-3.75 579.23-5.33 579.28-6.9 579.28-8.7L579.28-8.7 579.28-19.35Q579.28-22.65 579.13-24.25L579.13-24.25 575.18-24.75Q575.08-25 575.08-25.6L575.08-25.6Q575.08-25.85 575.08-26.1 575.08-26.35 575.18-26.65L575.18-26.65Q578.58-26.85 583.78-27.7L583.78-27.7Q584.23-27.2 584.28-26.7L584.28-26.7Q584.03-25.3 584.03-18.6ZM576.73-36.45L576.73-36.45Q576.63-36.7 576.63-36.98 576.63-37.25 576.63-37.5L576.63-37.5Q576.63-38.85 577.75-39.68 578.88-40.5 580.53-40.5L580.53-40.5Q582.08-40.5 583.05-39.58 584.03-38.65 584.03-37.05L584.03-37.05Q584.03-35.75 582.9-34.95 581.78-34.15 580.03-34.15L580.03-34.15Q578.83-34.15 577.9-34.75 576.98-35.35 576.73-36.45ZM611.43-8.7L611.43-17.85Q611.43-21.7 610.4-23.25 609.38-24.8 606.98-24.8L606.98-24.8Q603.28-24.8 599.53-19.25L599.53-19.25 599.53-2.55 603.58-1.8Q603.78-1 603.58 0.2L603.58 0.2Q600.43 0.05 597.13 0.05L597.13 0.05Q594.83 0.05 590.63 0.15L590.63 0.15Q590.33-0.8 590.63-1.8L590.63-1.8 594.58-2.35Q594.78-5.1 594.78-8.7L594.78-8.7 594.78-22.4Q594.78-23.4 594.63-24.25L594.63-24.25 590.68-24.75Q590.48-25.5 590.68-26.65L590.68-26.65Q594.13-26.9 599.28-27.7L599.28-27.7Q599.73-27.2 599.78-26.7L599.78-26.7Q599.53-25.4 599.53-22.25L599.53-22.25Q603.48-27.7 608.43-27.7L608.43-27.7Q616.18-27.7 616.18-20.35L616.18-20.35 616.18-2.55 620.23-1.8Q620.43-1 620.23 0.2L620.23 0.2Q617.08 0.05 613.78 0.05L613.78 0.05Q611.48 0.05 607.28 0.15L607.28 0.15Q606.98-0.8 607.28-1.8L607.28-1.8 611.23-2.35Q611.43-5.1 611.43-8.7L611.43-8.7ZM634.57-28.2L634.62-39.8 669.17-39.8 669.22-28.2Q668.12-28 667.37-28.2L667.37-28.2 665.02-37.25 654.62-37.25 654.62-2.2 659.67-1.7Q659.87-0.95 659.67 0.15L659.67 0.15Q656.52 0 652.07 0L652.07 0Q648.62 0 644.42 0.1L644.42 0.1Q644.12-0.8 644.42-1.7L644.42-1.7 649.07-2.3Q649.27-4.2 649.27-8.15L649.27-8.15 649.27-37.25 638.77-37.25 636.42-28.2Q635.67-28 634.57-28.2L634.57-28.2ZM673.17-39.95L673.17-39.95Q675.22-39.95 679.69-40.15 684.17-40.35 687.82-40.35L687.82-40.35Q695.42-40.35 698.67-37.33 701.92-34.3 701.92-28.9L701.92-28.9Q701.92-25.65 699.67-23.05 697.42-20.45 693.77-19.15L693.77-19.15Q695.92-15.5 697.79-12.3 699.67-9.1 700.52-7.55 701.37-6 702.07-4.78 702.77-3.55 703.09-3.1 703.42-2.65 703.72-2.35L703.72-2.35 707.32-1.85Q707.52-1.1 707.32 0L707.32 0 698.82 0 691.27-13.7Q689.77-16.55 688.42-18.1L688.42-18.1 687.72-18.1Q685.17-18.1 682.57-18.4L682.57-18.4 682.57-2.2 687.12-1.7Q687.32-0.95 687.12 0.15L687.12 0.15Q683.97 0 680.02 0L680.02 0Q677.07 0 672.87 0.1L672.87 0.1Q672.57-0.8 672.87-1.7L672.87-1.7 677.02-2.3Q677.22-4.2 677.22-8.15L677.22-8.15 677.22-37.6 673.17-38.1Q672.97-38.85 673.17-39.95ZM682.57-31.65L682.57-31.65 682.57-20.45Q684.12-20.25 687.07-20.25L687.07-20.25Q689.62-20.25 691.44-21.08 693.27-21.9 694.17-23.28 695.07-24.65 695.47-26.1 695.87-27.55 695.87-29.15L695.87-29.15Q695.87-33.45 693.72-35.85 691.57-38.25 686.57-38.25L686.57-38.25Q684.72-38.25 682.87-37.9L682.87-37.9Q682.57-35.05 682.57-31.65ZM713.12-11.55L714.72-3.45Q717.62-1.45 722.87-1.45L722.87-1.45Q726.42-1.45 728.19-3.5 729.97-5.55 729.97-8.4L729.97-8.4Q729.97-9.9 729.72-10.93 729.47-11.95 728.64-13.25 727.82-14.55 726.02-15.85 724.22-17.15 721.32-18.6L721.32-18.6Q717.92-20.3 715.82-21.8 713.72-23.3 712.67-24.9 711.62-26.5 711.27-27.95 710.92-29.4 710.92-31.55L710.92-31.55Q710.92-35.95 714.44-38.38 717.97-40.8 722.77-40.8L722.77-40.8Q728.72-40.8 734.27-37.8L734.27-37.8 734.27-28.2Q732.57-27.9 731.42-28.2L731.42-28.2 729.82-36.85Q726.62-38.6 722.67-38.6L722.67-38.6Q720.02-38.6 718.19-37.02 716.37-35.45 716.37-32.6L716.37-32.6Q716.37-31 716.57-30.1 716.77-29.2 717.57-27.98 718.37-26.75 720.22-25.53 722.07-24.3 725.17-22.8L725.17-22.8Q735.87-17.6 735.87-10.4L735.87-10.4Q735.87-5.3 731.97-2.15 728.07 1 721.77 1L721.77 1Q715.52 1 710.27-1.95L710.27-1.95 710.27-11.55Q711.97-11.85 713.12-11.55L713.12-11.55Z" opacity="1" transform="matrix(1,0,0,1,0,0)" fill="#cb8c2f" class="slogan-text-1" data-fill-palette-color="secondary" id="text-1"></path></svg></g></svg></g></svg></g></svg></g><g></g></svg></g><defs></defs></svg><rect width="184.04649999999998" height="85.59665460901059" fill="none" stroke="none" visibility="hidden"></rect></g></svg></g></svg>